<?xml version="1.0" encoding="UTF-8" standalone="no"?>
<svg width="40px" height="32px" viewBox="0 0 40 32" version="1.1" xmlns="http://www.w3.org/2000/svg" xmlns:xlink="http://www.w3.org/1999/xlink">
    <!-- Generator: Sketch 3.8.3 (29802) - http://www.bohemiancoding.com/sketch -->
    <title>icon engine</title>
    <desc>Created with Sketch.</desc>
    <defs>
        <path d="M32,15 L32,11.0024617 C32,10.4394583 32.4476291,10 32.9998075,10 L37,10 C38.8955419,12.8642706 40,17.3025512 40,21 C40,24.6974488 38.8955419,29.1357294 37,32 L32.9998075,32 C32.4437166,32 32,31.5511826 32,30.9975383 L32,27 L30.990778,27 C30.4435864,27 30,27.4437166 30,27.9998075 L30,31.0001925 C30,31.5523709 29.5452911,32 29.0000398,32 L13,32 L6,24 L5,24 C4.44771525,24 4,23.5525106 4,23.0014977 L4,11.9985023 C4,11.4470447 4.44386482,11 5,11 L6,11 L9.44381714,5.83427429 C9.75098845,5.37351732 10.4446309,5 11.0008717,5 L24.9991283,5 C25.5518945,5 26.1667824,5.4169561 26.3691406,5.92285156 L29.6308594,14.0771484 C29.8347301,14.5868253 30.4509752,15 30.990778,15 L32,15 Z" id="path-1"></path>
        <mask id="mask-2" maskContentUnits="userSpaceOnUse" maskUnits="objectBoundingBox" x="0" y="0" width="36" height="27" fill="white">
            <use xlink:href="#path-1"></use>
        </mask>
    </defs>
    <g id="05-Article" stroke="none" stroke-width="1" fill="none" fill-rule="evenodd">
        <g id="Motor-Article-D-v.2" transform="translate(-493.000000, -16300.000000)">
            <g id="Content">
                <g id="verdict" transform="translate(22.000000, 16190.000000)">
                    <g id="icon-engine" transform="translate(471.000000, 110.000000)">
                        <rect id="Rectangle-361" fill="#000000" x="0" y="9" width="2" height="16" rx="1"></rect>
                        <rect id="Rectangle-360" fill="#000000" x="10" y="0" width="16" height="2" rx="1"></rect>
                        <rect id="Rectangle-362" fill="#000000" x="2" y="16" width="2" height="2"></rect>
                        <rect id="Rectangle-362" fill="#000000" x="17" y="2" width="2" height="3"></rect>
                        <use id="Combined-Shape" stroke="#000000" mask="url(#mask-2)" stroke-width="4" fill-opacity="0" fill="#D8D8D8" xlink:href="#path-1"></use>
                    </g>
                </g>
            </g>
        </g>
    </g>
</svg>