<?xml version="1.0" encoding="iso-8859-1"?>
<!-- Generator: Adobe Illustrator 18.1.1, SVG Export Plug-In . SVG Version: 6.00 Build 0)  -->
<svg version="1.1" id="Capa_1" xmlns="http://www.w3.org/2000/svg" xmlns:xlink="http://www.w3.org/1999/xlink" x="0px" y="0px"
	 viewBox="0 0 654.758 654.758" style="enable-background:new 0 0 654.758 654.758;" xml:space="preserve">
<g>
	<path d="M443.398,75.359l17.515-29.437c3.974-7.139,12.732-9.567,19.87-5.593c7.138,3.974,9.567,12.732,5.593,19.87l-17.515,29.437
		c-2.355,4.784-7.948,7.139-12.732,7.139c-2.355,0-4.784-0.81-7.138-1.619C441.779,91.255,439.424,82.571,443.398,75.359z
		 M185.896,89.71c2.355,4.784,7.948,7.139,12.732,7.139c2.355,0,4.784-0.81,7.139-1.619c7.139-3.974,9.567-12.732,5.593-19.87
		l-17.515-29.437c-3.974-7.139-12.732-9.567-19.87-5.593s-9.567,12.732-5.593,19.87L185.896,89.71z M327.342,62.701
		c7.948,0,14.277-6.329,14.277-14.277V14.277C341.619,6.329,335.29,0,327.342,0c-7.948,0-14.277,6.329-14.277,14.277v34.147
		C312.255,56.299,318.584,62.701,327.342,62.701z M69.84,290.766H35.693c-7.948,0-14.277,6.329-14.277,14.277
		c0,7.948,6.329,14.277,14.277,14.277H69.84c7.948,0,14.277-6.329,14.277-14.277S77.788,290.766,69.84,290.766z M619.065,290.766
		h-34.147c-7.948,0-14.277,6.329-14.277,14.277c0,7.948,6.329,14.277,14.277,14.277h34.147c7.948,0,14.277-6.329,14.277-14.277
		S627.013,290.766,619.065,290.766z M592.792,152.485c-3.974-7.139-12.732-9.567-19.87-5.593l-29.437,17.515
		c-7.138,3.974-9.567,12.732-5.593,19.87c2.355,4.784,7.948,7.139,12.732,7.139c2.355,0,4.784-0.81,7.138-1.619l29.437-17.515
		C594.411,168.381,596.766,159.623,592.792,152.485z M514.931,303.498c0,32.602-8.758,64.394-24.654,93.022
		c-0.809,2.355-1.619,3.974-3.165,5.593l-1.619,2.355c-6.329,9.567-12.732,19.061-20.68,27.009
		c-27.818,38.931-42.095,72.342-41.359,93.758v0.81c0,1.619,0.81,3.974,0.81,6.329v68.368c0,30.173-24.654,54.017-54.017,54.017
		h-88.164c-30.173,0-54.017-24.654-54.017-54.017v-68.368c0-1.619,0-2.355,0-3.974c0-0.81,0-2.355,0-3.164
		c0.81-20.68-13.541-53.281-39.74-91.403c-8.758-9.567-17.515-19.87-23.844-31.792c-0.809-1.619-1.619-2.355-2.355-3.974
		c-16.706-28.628-25.463-61.229-25.463-93.758c0-104.134,85.074-189.134,189.134-189.134
		C429.857,114.364,514.931,199.364,514.931,303.498z M394.9,540.32H257.429v27.009H394.9V540.32L394.9,540.32z M394.9,602.359
		v-5.593H257.429v5.593c1.619,12.732,11.922,22.225,24.654,22.225h88.238C382.978,624.584,393.355,615.091,394.9,602.359z
		 M485.493,303.498c0-88.238-71.532-159.771-159.771-159.771S165.952,215.26,165.952,303.498c0,28.628,7.948,56.446,22.225,81.1l0,0
		c0,0,0,0,0,0.809c6.329,10.303,13.541,19.87,21.489,28.628c0.81,0.81,0.81,0.81,1.619,1.619
		c26.199,37.385,41.359,69.177,45.333,95.377H395.71c4.784-32.602,27.009-69.913,46.879-97.732c0-0.81,0.81-0.81,1.619-1.619
		c7.139-7.139,13.541-15.896,18.251-24.654c0-0.81,0.81-0.81,0.81-1.619c0-0.81,0.81-0.809,0.81-1.619
		C478.355,359.944,485.493,332.126,485.493,303.498z M111.199,164.407l-29.437-17.515c-7.139-3.974-15.896-1.619-19.87,5.593
		c-3.974,7.139-1.619,15.896,5.593,19.87l29.437,17.515c2.355,1.619,4.784,1.619,7.139,1.619c4.784,0,10.303-2.355,12.732-7.139
		C120.693,177.139,118.338,168.381,111.199,164.407z"/>
</g>
<g>
</g>
<g>
</g>
<g>
</g>
<g>
</g>
<g>
</g>
<g>
</g>
<g>
</g>
<g>
</g>
<g>
</g>
<g>
</g>
<g>
</g>
<g>
</g>
<g>
</g>
<g>
</g>
<g>
</g>
</svg>
