<?xml version="1.0" encoding="iso-8859-1"?>
<!-- Generator: Adobe Illustrator 16.0.0, SVG Export Plug-In . SVG Version: 6.00 Build 0)  -->
<!DOCTYPE svg PUBLIC "-//W3C//DTD SVG 1.1//EN" "http://www.w3.org/Graphics/SVG/1.1/DTD/svg11.dtd">
<svg version="1.1" id="Capa_1" xmlns="http://www.w3.org/2000/svg" xmlns:xlink="http://www.w3.org/1999/xlink" x="0px" y="0px"
	 width="59.306px" height="59.305px" viewBox="0 0 59.306 59.305" style="enable-background:new 0 0 59.306 59.305;"
	 xml:space="preserve">
<g>
	<g>
		<path d="M55.762,24.009c-1.151,0-2.167,0.555-2.815,1.406c-0.399-4.651-1.418-12.038-3.962-15.892
			c-3.887-5.894-12.312-4.126-12.312-4.126s-3.241-0.25-3.241,5.14c0,2.373-2.614,2.668-3.613,2.696
			c-0.011,0-0.031,0.001-0.045,0.001c-0.045,0.001-0.085,0.001-0.122,0.001s-0.077,0-0.122-0.001c-0.013,0-0.034,0-0.045-0.001
			c-0.999-0.027-3.613-0.323-3.613-2.696c0-5.389-3.241-5.14-3.241-5.14s-8.425-1.768-12.313,4.125
			c-2.542,3.854-3.562,11.241-3.961,15.891c-0.647-0.851-1.663-1.405-2.814-1.405C1.585,24.009,0,25.595,0,27.552
			c0,8.825,22.697,9.51,29.653,9.51c6.958,0,29.653-0.686,29.653-9.51C59.305,25.595,57.719,24.009,55.762,24.009z M8.019,23.055
			c0,0,12.517,1.76,21.804,1.771c9.144-0.01,21.469-1.771,21.469-1.771c0.163,1.423,0.295,2.826,0.389,3.901
			c-2.672,1.283-10.237,3.021-22.03,3.021c-11.789,0-19.353-1.736-22.026-3.02C7.719,25.882,7.853,24.479,8.019,23.055z"/>
		<path d="M14.651,44.073c-4.048-0.501-6.052,3.623-3.314,7.595c2.396,3.475,9.144,2.554,12.205,1.712
			c0.062-0.017,0.124-0.037,0.185-0.056c0.348-0.1,0.652-0.198,0.875-0.286c2.282-0.876,4.036-2.458,5.045-4.303
			c1.009,1.845,2.761,3.427,5.044,4.303c0.057,0.021,0.114,0.036,0.171,0.056c0.166,0.062,0.36,0.125,0.58,0.19
			c0.132,0.04,0.262,0.081,0.395,0.115c3.094,0.836,9.754,1.719,12.133-1.731c2.736-3.972,0.732-8.096-3.315-7.595
			c-4.047,0.502-2.62,3.046-2.62,3.046c-0.725-1.662,2.891-2.159,2.312,0.462s-6.748,0.274-6.748,0.274l-0.006,0.01
			c-0.256-0.123-0.512-0.242-0.781-0.346c-2.49-0.956-5.078-0.873-7.164,0.022c-2.085-0.896-4.673-0.979-7.164-0.022
			c-0.267,0.102-0.52,0.221-0.772,0.342l-0.003-0.006c0,0-6.169,2.347-6.748-0.274c-0.579-2.621,3.036-2.124,2.312-0.462
			C17.272,47.119,18.698,44.575,14.651,44.073z"/>
	</g>
</g>
<g>
</g>
<g>
</g>
<g>
</g>
<g>
</g>
<g>
</g>
<g>
</g>
<g>
</g>
<g>
</g>
<g>
</g>
<g>
</g>
<g>
</g>
<g>
</g>
<g>
</g>
<g>
</g>
<g>
</g>
</svg>
