<?xml version="1.0" encoding="iso-8859-1"?>
<!-- Generator: Adobe Illustrator 16.0.0, SVG Export Plug-In . SVG Version: 6.00 Build 0)  -->
<!DOCTYPE svg PUBLIC "-//W3C//DTD SVG 1.1//EN" "http://www.w3.org/Graphics/SVG/1.1/DTD/svg11.dtd">
<svg version="1.1" id="Capa_1" xmlns="http://www.w3.org/2000/svg" xmlns:xlink="http://www.w3.org/1999/xlink" x="0px" y="0px"
	 width="530px" height="530px" viewBox="0 0 530 530" style="enable-background:new 0 0 530 530;" xml:space="preserve">
<g>
	<path d="M388.85,301.301c-12.801,21.6-27.4,39.799-46.801,49.899c-40.199,20.601-73.999,37.2-73.999,37.2l-74.4-36.301
		c-19.7-10.1-43.6-28.799-58-50.799c-60.5,23.6-95.5,79-95.5,128.1V530h449.7c0,0,0-49.4,0-100.6
		C489.65,381,448.25,325.4,388.85,301.301z M141.55,223.5c17.9,58.9,64.1,120.1,126.4,120.1s108.5-61.1,126.4-120.1
		c15.3-5.3,28.3-20.7,33.199-40.5c7.301-29-4.399-56-26.699-61.7c-0.4-0.1-0.7-0.2-1.2-0.3c-14-72.7-66.101-121-131.801-121
		C202.15,0,150.25,48.3,136.05,121c-0.4,0.1-0.7,0.2-1.2,0.2c-22.2,5.6-33.9,32.7-26.7,61.7C113.45,202.8,126.15,218.2,141.55,223.5
		z M140.25,141.7c0.6-0.2,1.4-0.2,2.3-0.2c0.6,0,1.2,0,1.8,0.1l9.9,0.8l1.5-9.8c9.9-66.7,55.1-111.6,112.5-111.6
		c57.4,0,102.5,44.9,112.5,111.6l1.5,9.8l9.9-0.8c1.5-0.1,3-0.1,4,0.2c10.3,2.6,15.7,19.5,11.5,36.2c-4,15.9-14.4,25.4-22.7,26.5
		l-6.9,0.9l-1.8,6.7c-15,54.9-56.8,110.6-107.8,110.6s-92.9-55.7-107.9-110.6l-1.8-6.7l-6.9-0.9c-8.2-1.2-18.7-10.5-22.7-26.5
		C124.55,161.2,129.85,144.3,140.25,141.7z M239.65,198.1c4.3-4.8,7.1-11.2,7.9-17.6c12-7.7,27.299-7.9,39.5-0.7
		c0.399,0.2,0.699,0.5,1.199,0.7c0.2,6.4,3.1,12.8,7.5,17.6c16.2,18.1,73.4,11.9,73.4-18.4c0-27.2-67.9-41.2-79.6-15
		c-0.601,1.4-0.801,2-1.4,4.2c-13.2-6.1-28.4-5.9-41.3,0.5c-0.4-1.6-0.7-3.3-1.4-4.8c-11.8-26.2-79.5-12.2-79.5,15
		C165.85,210,223.25,216.2,239.65,198.1z M311.95,234.7c-16.5-16.5-45-15-45.2-14.9c-2.6-0.1-29.2-0.8-45,15
		c-16.5,16.5-14.9,45.2-14.9,45.2s28.6,1.7,45.2-14.9c11.4-11.399,14.2-28.5,14.799-38.1c0.601,9.6,3.4,26.7,14.801,38.1
		c16.5,16.5,45.2,14.9,45.2,14.9S328.45,251.4,311.95,234.7z"/>
</g>
<g>
</g>
<g>
</g>
<g>
</g>
<g>
</g>
<g>
</g>
<g>
</g>
<g>
</g>
<g>
</g>
<g>
</g>
<g>
</g>
<g>
</g>
<g>
</g>
<g>
</g>
<g>
</g>
<g>
</g>
</svg>
