<?xml version="1.0" encoding="iso-8859-1"?>
<!-- Generator: Adobe Illustrator 18.0.0, SVG Export Plug-In . SVG Version: 6.00 Build 0)  -->
<!DOCTYPE svg PUBLIC "-//W3C//DTD SVG 1.1//EN" "http://www.w3.org/Graphics/SVG/1.1/DTD/svg11.dtd">
<svg version="1.1" id="Capa_1" xmlns="http://www.w3.org/2000/svg" xmlns:xlink="http://www.w3.org/1999/xlink" x="0px" y="0px"
	 viewBox="0 0 467.434 467.434" style="enable-background:new 0 0 467.434 467.434;" xml:space="preserve">
<g>
	<path d="M421.18,35.684H140.969c-25.541,0-46.256,20.717-46.256,46.256v43.535h40.139V90.316c0-9.727,7.869-17.596,17.596-17.596
		h257.252c9.728,0,17.596,7.869,17.596,17.596v165.445c0,9.73-7.867,17.596-17.596,17.596H289.832v57.723
		c0,0-0.17,76.699-0.197,77.361c-0.324,8.113-2.676,15.643-6.5,22.279h83.293c9.727,0,17.594-7.865,17.594-17.594v-22.498
		c0-9.729-7.867-17.596-17.594-17.596H323.49v-31.211h97.689c25.541,0,46.254-20.715,46.254-46.258V81.939
		C467.434,56.4,446.721,35.684,421.18,35.684z M398.453,319.277c-7.98,0-14.432-6.471-14.432-14.443
		c0-7.961,6.451-14.418,14.432-14.418c7.957,0,14.426,6.457,14.426,14.418C412.879,312.807,406.41,319.277,398.453,319.277z"/>
	<path d="M240.949,149.08H75.133c-13.953,0-25.281,11.328-25.281,25.283v35.389h34.701v-21.008h146.975v173.715H149.91v28.109
		c2.352-1.646,5.041-2.828,8.133-2.828c7.959,0,14.43,6.455,14.43,14.416c0,7.973-6.471,14.441-14.43,14.441
		c-3.092,0-5.781-1.18-8.133-2.824v4.119c0,4.9-1.014,9.525-2.641,13.857h93.68c13.951,0,25.281-11.322,25.281-25.277V174.363
		C266.23,160.408,254.9,149.08,240.949,149.08z"/>
	<path d="M110.539,230.93H15.768C7.053,230.93,0,237.984,0,246.695v168.766c0,8.715,7.053,15.77,15.768,15.77h94.771
		c8.713,0,15.77-7.055,15.77-15.77V246.695C126.309,237.984,119.252,230.93,110.539,230.93z M63.16,422.24
		c-6.697,0-12.139-5.441-12.139-12.154c0-6.686,5.441-12.111,12.139-12.111c6.686,0,12.127,5.426,12.127,12.111
		C75.287,416.799,69.846,422.24,63.16,422.24z M100.689,373.018H25.633V262.297h75.057V373.018z"/>
</g>
<g>
</g>
<g>
</g>
<g>
</g>
<g>
</g>
<g>
</g>
<g>
</g>
<g>
</g>
<g>
</g>
<g>
</g>
<g>
</g>
<g>
</g>
<g>
</g>
<g>
</g>
<g>
</g>
<g>
</g>
</svg>
