<?xml version="1.0" encoding="UTF-8" standalone="no"?>
<svg width="24px" height="18px" viewBox="0 0 24 18" version="1.1" xmlns="http://www.w3.org/2000/svg" xmlns:xlink="http://www.w3.org/1999/xlink">
    <!-- Generator: Sketch 3.8.3 (29802) - http://www.bohemiancoding.com/sketch -->
    <title>car icon</title>
    <desc>Created with Sketch.</desc>
    <defs>
        <rect id="path-1" x="0" y="6" width="24" height="9" rx="2"></rect>
        <mask id="mask-2" maskContentUnits="userSpaceOnUse" maskUnits="objectBoundingBox" x="0" y="0" width="24" height="9" fill="white">
            <use xlink:href="#path-1"></use>
        </mask>
        <path d="M4.45930224,1.79535615 C4.93978813,0.80380833 6.22543246,0 7.3267537,0 L16.673995,0 C17.7771588,0 19.0644978,0.811107993 19.5414465,1.79535615 L21.6781064,6.20464385 C22.1585923,7.19619167 21.6551318,8 20.5444752,8 L3.45627354,8 C2.34970039,8 1.84569368,7.18889201 2.32264229,6.20464385 L4.45930224,1.79535615 Z" id="path-3"></path>
        <mask id="mask-4" maskContentUnits="userSpaceOnUse" maskUnits="objectBoundingBox" x="0" y="0" width="19.7171294" height="8" fill="white">
            <use xlink:href="#path-3"></use>
        </mask>
    </defs>
    <g id="Symbols" stroke="none" stroke-width="1" fill="none" fill-rule="evenodd">
        <g id="menu" transform="translate(-14.000000, -121.000000)">
            <g id="button-cars">
                <g transform="translate(0.000000, 104.000000)">
                    <g id="car-icon" transform="translate(14.000000, 17.000000)">
                        <use id="Rectangle-1455" stroke="#262626" mask="url(#mask-2)" stroke-width="4" fill-opacity="0" fill="#D8D8D8" xlink:href="#path-1"></use>
                        <use id="Rectangle-1455" stroke="#262626" mask="url(#mask-4)" stroke-width="4" fill-opacity="0" fill="#D8D8D8" xlink:href="#path-3"></use>
                        <circle id="Oval-166" fill="#262626" cx="19.5" cy="10.5" r="1.5"></circle>
                        <circle id="Oval-166" fill="#262626" cx="4.5" cy="10.5" r="1.5"></circle>
                        <rect id="Rectangle-1457" fill="#262626" x="2" y="13" width="3" height="5" rx="1.5"></rect>
                        <rect id="Rectangle-1457" fill="#262626" x="19" y="13" width="3" height="5" rx="1.5"></rect>
                    </g>
                </g>
            </g>
        </g>
    </g>
</svg>