<svg id="7ab10f0a-0234-42da-a2af-e51c470f3747" data-name="Слой 1" xmlns="http://www.w3.org/2000/svg" xmlns:xlink="http://www.w3.org/1999/xlink" viewBox="0 0 40 40"><defs><clipPath id="ad92aeda-3497-4b7d-9854-a94977ecbac5"><path d="M4,7A3,3,0,1,1,7,4,3,3,0,0,1,4,7ZM4,9A5,5,0,1,0-1,4,5,5,0,0,0,4,9ZM-21-21H29V29H-21V-21Z" fill="none" clip-rule="evenodd"/></clipPath><clipPath id="a2411936-456b-4122-933c-5033a52c74da"><circle cx="4" cy="4" r="4" fill="none"/></clipPath><clipPath id="c524d221-9415-4f6e-8ee4-757c36f66617"><rect x="-490" y="-16356" width="1280" height="18854" fill="none"/></clipPath><clipPath id="c50bb77f-7012-4abe-ba90-8e8a9471817c"><path d="M20,7a3,3,0,1,1,3-3A3,3,0,0,1,20,7Zm0,2a5,5,0,1,0-5-5A5,5,0,0,0,20,9ZM-5-21H45V29H-5V-21Z" fill="none" clip-rule="evenodd"/></clipPath><clipPath id="e7c87986-0fe4-4393-b002-e6795768b62e"><circle cx="20" cy="4" r="4" fill="none"/></clipPath><clipPath id="0138d154-fc8c-4b6d-ad7f-13f804e3e994"><path d="M20,39a3,3,0,1,1,3-3A3,3,0,0,1,20,39Zm0,2a5,5,0,1,0-5-5A5,5,0,0,0,20,41ZM-5,11H45V61H-5V11Z" fill="none" clip-rule="evenodd"/></clipPath><clipPath id="39905066-271f-4f29-b863-0e83d3aa96b6"><circle cx="20" cy="36" r="4" fill="none"/></clipPath><clipPath id="454c1aa4-34f7-4692-8b33-c665de6fe706"><path d="M36,7a3,3,0,1,1,3-3A3,3,0,0,1,36,7Zm0,2a5,5,0,1,0-5-5A5,5,0,0,0,36,9ZM11-21H61V29H11V-21Z" fill="none" clip-rule="evenodd"/></clipPath><clipPath id="9f9da594-86b1-4473-b03a-25be53d6fd5e"><circle cx="36" cy="4" r="4" fill="none"/></clipPath><clipPath id="0b69a14e-a009-4a55-923f-7ee6fe38dd61"><path d="M4,39a3,3,0,1,1,3-3A3,3,0,0,1,4,39Zm0,2a5,5,0,1,0-5-5A5,5,0,0,0,4,41ZM-21,11H29V61H-21V11Z" fill="none" clip-rule="evenodd"/></clipPath><clipPath id="63f9344d-899b-4db7-b78a-414439269e64"><circle cx="4" cy="36" r="4" fill="none"/></clipPath><clipPath id="6207f625-21fc-4785-87e9-cd508e1ae760"><rect x="3" y="7" width="2" height="27" fill="none"/></clipPath><clipPath id="6afc27a1-7e79-4ae5-b59c-93645cff869e"><rect x="19" y="7" width="2" height="27" fill="none"/></clipPath></defs><title>icon transmission</title><g clip-path="url(#ad92aeda-3497-4b7d-9854-a94977ecbac5)"><g clip-path="url(#a2411936-456b-4122-933c-5033a52c74da)"><g clip-path="url(#c524d221-9415-4f6e-8ee4-757c36f66617)"><circle cx="4" cy="4" r="4" fill="#d8d8d8" opacity="0"/></g></g></g><g clip-path="url(#a2411936-456b-4122-933c-5033a52c74da)"><g clip-path="url(#c524d221-9415-4f6e-8ee4-757c36f66617)"><circle cx="4" cy="4" r="4" fill="none" stroke="#000" stroke-miterlimit="10" stroke-width="4"/></g></g><g clip-path="url(#c50bb77f-7012-4abe-ba90-8e8a9471817c)"><g clip-path="url(#e7c87986-0fe4-4393-b002-e6795768b62e)"><g clip-path="url(#c524d221-9415-4f6e-8ee4-757c36f66617)"><circle cx="20" cy="4" r="4" fill="#d8d8d8" opacity="0"/></g></g></g><g clip-path="url(#e7c87986-0fe4-4393-b002-e6795768b62e)"><g clip-path="url(#c524d221-9415-4f6e-8ee4-757c36f66617)"><circle cx="20" cy="4" r="4" fill="none" stroke="#000" stroke-miterlimit="10" stroke-width="4"/></g></g><g clip-path="url(#0138d154-fc8c-4b6d-ad7f-13f804e3e994)"><g clip-path="url(#39905066-271f-4f29-b863-0e83d3aa96b6)"><g clip-path="url(#c524d221-9415-4f6e-8ee4-757c36f66617)"><circle cx="20" cy="36" r="4" fill="#d8d8d8" opacity="0"/></g></g></g><g clip-path="url(#39905066-271f-4f29-b863-0e83d3aa96b6)"><g clip-path="url(#c524d221-9415-4f6e-8ee4-757c36f66617)"><circle cx="20" cy="36" r="4" fill="none" stroke="#000" stroke-miterlimit="10" stroke-width="4"/></g></g><g clip-path="url(#454c1aa4-34f7-4692-8b33-c665de6fe706)"><g clip-path="url(#9f9da594-86b1-4473-b03a-25be53d6fd5e)"><g clip-path="url(#c524d221-9415-4f6e-8ee4-757c36f66617)"><circle cx="36" cy="4" r="4" fill="#d8d8d8" opacity="0"/></g></g></g><g clip-path="url(#9f9da594-86b1-4473-b03a-25be53d6fd5e)"><g clip-path="url(#c524d221-9415-4f6e-8ee4-757c36f66617)"><circle cx="36" cy="4" r="4" fill="none" stroke="#000" stroke-miterlimit="10" stroke-width="4"/></g></g><g clip-path="url(#0b69a14e-a009-4a55-923f-7ee6fe38dd61)"><g clip-path="url(#63f9344d-899b-4db7-b78a-414439269e64)"><g clip-path="url(#c524d221-9415-4f6e-8ee4-757c36f66617)"><circle cx="4" cy="36" r="4" fill="#d8d8d8" opacity="0"/></g></g></g><g clip-path="url(#63f9344d-899b-4db7-b78a-414439269e64)"><g clip-path="url(#c524d221-9415-4f6e-8ee4-757c36f66617)"><circle cx="4" cy="36" r="4" fill="none" stroke="#000" stroke-miterlimit="10" stroke-width="4"/></g></g><g clip-path="url(#6207f625-21fc-4785-87e9-cd508e1ae760)"><g clip-path="url(#c524d221-9415-4f6e-8ee4-757c36f66617)"><rect x="-2" y="2" width="12" height="37"/></g></g><g clip-path="url(#6afc27a1-7e79-4ae5-b59c-93645cff869e)"><g clip-path="url(#c524d221-9415-4f6e-8ee4-757c36f66617)"><rect x="14" y="2" width="12" height="37"/></g></g><g clip-path="url(#c524d221-9415-4f6e-8ee4-757c36f66617)"><path d="M36,7v9a4,4,0,0,1-4,4H4" fill="none" stroke="#000" stroke-miterlimit="10" stroke-width="2"/></g></svg>