<?xml version="1.0" encoding="utf-8"?>
<!-- Generator: Adobe Illustrator 19.1.1, SVG Export Plug-In . SVG Version: 6.00 Build 0)  -->
<svg version="1.1" id="Слой_7" xmlns="http://www.w3.org/2000/svg" xmlns:xlink="http://www.w3.org/1999/xlink" x="0px" y="0px"
	 viewBox="0 0 595.3 595.3" style="enable-background:new 0 0 595.3 595.3;" xml:space="preserve">
<style type="text/css">
	.st0{fill:url(#SVGID_1_);}
	.st1{clip-path:url(#SVGID_3_);}
	.st2{fill:#FFFFFF;}
	.st3{clip-path:url(#SVGID_5_);}
	.st4{fill:#BFBEBE;}
	.st5{fill:#FFFFFF;stroke:#FFFFFF;stroke-width:5;stroke-miterlimit:10;}
	.st6{fill:#BFBEBE;stroke:#BFBEBE;stroke-width:5;stroke-miterlimit:10;}
</style>
<g>
	<linearGradient id="SVGID_1_" gradientUnits="userSpaceOnUse" x1="299.3748" y1="564.3278" x2="299.9388" y2="32.2634">
		<stop  offset="0" style="stop-color:#434444"/>
		<stop  offset="1" style="stop-color:#2F2E2E"/>
	</linearGradient>
	<circle class="st0" cx="299.7" cy="298.5" r="267.7"/>
	<g>
		<defs>
			<rect id="SVGID_2_" x="116.6" y="316.2" width="183" height="183"/>
		</defs>
		<clipPath id="SVGID_3_">
			<use xlink:href="#SVGID_2_"  style="overflow:visible;"/>
		</clipPath>
		<g class="st1">
			<path class="st2" d="M299.6,244.9c38.5,0,69.7,31.3,69.7,69.7v60.3c0,38.5-31.3,69.7-69.7,69.7s-69.7-31.3-69.7-69.7v-60.3
				C229.9,276.2,261.2,244.9,299.6,244.9 M299.6,193.9L299.6,193.9c-66.7,0-120.7,54.1-120.7,120.7v60.3
				c0,66.7,54.1,120.7,120.7,120.7h0c66.7,0,120.7-54.1,120.7-120.7v-60.3C420.4,247.9,366.3,193.9,299.6,193.9L299.6,193.9z"/>
		</g>
	</g>
	<g>
		<defs>
			<rect id="SVGID_4_" x="299.3" y="316.2" width="183" height="183"/>
		</defs>
		<clipPath id="SVGID_5_">
			<use xlink:href="#SVGID_4_"  style="overflow:visible;"/>
		</clipPath>
		<g class="st3">
			<path class="st4" d="M298.3,244.9c38.5,0,69.7,31.3,69.7,69.7v60.3c0,38.5-31.3,69.7-69.7,69.7s-69.7-31.3-69.7-69.7v-60.3
				C228.6,276.2,259.8,244.9,298.3,244.9 M298.3,193.9L298.3,193.9c-66.7,0-120.7,54.1-120.7,120.7v60.3
				c0,66.7,54.1,120.7,120.7,120.7h0c66.7,0,120.7-54.1,120.7-120.7v-60.3C419.1,247.9,365,193.9,298.3,193.9L298.3,193.9z"/>
		</g>
	</g>
	<line class="st5" x1="143.8" y1="143.2" x2="264.8" y2="143.2"/>
	<line class="st6" x1="334.8" y1="143.2" x2="455.8" y2="143.2"/>
	<path class="st2" d="M204.1,274.3L204.1,274.3c-14,0-25.5-11.5-25.5-25.5v-41.6c0-14,11.5-25.5,25.5-25.5h0
		c14,0,25.5,11.5,25.5,25.5v41.6C229.6,262.9,218.2,274.3,204.1,274.3z"/>
	<path class="st4" d="M393.1,274.3L393.1,274.3c-14,0-25.5-11.5-25.5-25.5v-41.6c0-14,11.5-25.5,25.5-25.5h0
		c14,0,25.5,11.5,25.5,25.5v41.6C418.6,262.9,407.2,274.3,393.1,274.3z"/>
</g>
</svg>
