<?xml version="1.0" encoding="iso-8859-1"?>
<!-- Generator: Adobe Illustrator 19.0.0, SVG Export Plug-In . SVG Version: 6.00 Build 0)  -->
<svg xmlns="http://www.w3.org/2000/svg" xmlns:xlink="http://www.w3.org/1999/xlink" version="1.1" id="Capa_1" x="0px" y="0px" viewBox="0 0 502.641 502.641" style="enable-background:new 0 0 502.641 502.641;" xml:space="preserve" width="128px" height="128px">
<g>
  <g>
    <path d="M494.812,235.513c-15.207-36.929-43.94-55.674-85.442-55.674c0,0-27.244,0-49.742,0    c8.413-19.004,17.774-46.571,17.774-79.79c0-9.103-0.712-18.551-2.438-28.171c-6.536-38.612-32.895-59.147-70.364-55.027    c-14.841,1.704-19.931,15.79-32.227,49.936c-10.203,28.301-24.181,67.064-44.457,98.233    c-14.905,22.908-41.459,40.984-63.763,52.115v-2.826H0V458.21h164.197v-13.439c25.842-1.273,40.531-0.518,43.983,0.582    l29.379,17.062l21.959,13.697c21.334,11.497,114.649,12.597,154.663,6.665c51.446-7.507,63.871-49.677,64.389-51.489    C482.625,417.311,518.022,291.834,494.812,235.513z M447.572,422.424c-0.302,0.928-7.787,24.03-38.072,28.366    c-43.055,6.407-122.91,2.524-134.753-3.128c0.086,0.065-19.478-12.209-19.478-12.209l-36.908-20.73    c-8.564-2.869-27.977-3.193-54.164-2.028V252.036c26.446-10.699,67.409-33.672,90.77-69.415    c22.347-34.298,37.059-75.088,47.801-104.92c0,0,9.47-23.577,11.756-29.034c16.351,0.086,25.367,9.081,28.732,28.56    c1.337,7.636,1.855,15.207,1.855,22.52c0,48.34-24.828,86.822-25.195,87.297l-16.372,24.957l105.826,0.043    c28.301,0,45.428,11.023,55.631,35.743C481.05,286.722,457.754,387.091,447.572,422.424z" fill="#607D8B"/>
  </g>  
</g>
</svg>
